<svg width="139" height="25" viewBox="0 0 139 25" fill="none" xmlns="http://www.w3.org/2000/svg">
<path d="M66.3854 0.338212L69.3557 0.338212L76.2864 10.2392L83.2171 10.2392C83.7488 10.2392 83.8312 10.8775 84.2072 11.2293C84.5832 11.5811 85.1973 11.7219 85.1973 12.2194C85.1973 12.7169 84.5832 12.8577 84.2072 13.2095C83.8312 13.5613 83.7488 14.1996 83.2171 14.1996L76.2864 14.1996L69.3557 24.1006L66.3854 24.1006L69.3557 14.1996L62.425 14.1996L60.4448 16.1798L58.4646 16.1798L59.4547 12.2194L58.4646 8.259L60.4448 8.259L62.425 10.2392L69.3557 10.2392L66.3854 0.338212Z" fill="#EC2029"/>
<path d="M69.356 24.1006H66.3857L70.3461 14.1996H76.2867L69.356 24.1006Z" fill="url(#paint0_linear_13_223394)"/>
<path d="M69.356 0.337891H66.3857L70.3461 10.2389H76.2867L69.356 0.337891Z" fill="url(#paint1_linear_13_223394)"/>
<line x1="0.0488281" y1="11.7428" x2="39.6528" y2="11.7428" stroke="#939598" stroke-width="0.951845"/>
<line x1="99.0576" y1="11.7428" x2="138.662" y2="11.7428" stroke="#939598" stroke-width="0.951845"/>
<defs>
<linearGradient id="paint0_linear_13_223394" x1="62.7942" y1="19.1501" x2="72.9721" y2="24.9584" gradientUnits="userSpaceOnUse">
<stop stop-color="#F9A51A"/>
<stop offset="0.267357" stop-color="#FBB612"/>
<stop offset="0.881951" stop-color="#FFDD00"/>
</linearGradient>
<linearGradient id="paint1_linear_13_223394" x1="62.7942" y1="5.28839" x2="72.9721" y2="-0.519882" gradientUnits="userSpaceOnUse">
<stop stop-color="#F9A51A"/>
<stop offset="0.267357" stop-color="#FBB612"/>
<stop offset="0.881951" stop-color="#FFDD00"/>
</linearGradient>
</defs>
</svg>
